Coordinates
version=1
nRows=19
nColumns=36
inDegrees=yes

Units are S.I. units (second, meters, Newtons, ...)
If the header above contains a line with 'inDegrees', this indicates whether rotational values are in degrees (yes) or radians (no).

endheader
time	pelvis_tilt	pelvis_list	pelvis_rotation	pelvis_tx	pelvis_ty	pelvis_tz	hip_flexion_r	hip_adduction_r	hip_rotation_r	knee_angle_r	knee_angle_r_beta	ankle_angle_r	subtalar_angle_r	mtp_angle_r	hip_flexion_l	hip_adduction_l	hip_rotation_l	knee_angle_l	knee_angle_l_beta	ankle_angle_l	subtalar_angle_l	mtp_angle_l	lumbar_extension	lumbar_bending	lumbar_rotation	arm_flex_r	arm_add_r	arm_rot_r	elbow_flex_r	pro_sup_r	arm_flex_l	arm_add_l	arm_rot_l	elbow_flex_l	pro_sup_l
      1.27000000	     -5.13690159	      1.76291976	     -0.44769544	      1.05240238	      0.93937021	     -0.21140569	     31.58971540	     -0.67350323	     -1.58382416	     21.76232266	      0.37982418	      0.85024980	     -9.51522460	     -7.23765265	     -2.49296312	      2.92306392	      0.71386159	     10.05295393	      0.17545715	     13.16158787	     -0.07361886	     -7.23765265	     -7.15289653	    -18.03096593	     -3.96962824	      0.13682770	    -10.26007609	     27.65993045	     34.88735993	    104.57798823	     11.01829273	    -13.57398395	      1.56873393	     46.91742518	     98.90938995
      1.28000000	     -4.96889964	      1.74119959	     -0.36870552	      1.06144633	      0.93861361	     -0.21165466	     31.41206158	     -0.77511154	     -2.13018963	     19.41179046	      0.33879966	      1.05241610	     -7.92142481	     -7.24690861	     -3.47625083	      2.83665637	      0.38811620	      9.67833856	      0.16891887	     13.42393140	      1.01359078	     -7.24690861	     -7.30301726	    -17.50748685	     -4.12966221	     -0.03096577	    -10.21836997	     26.98860510	     35.02246868	    104.59807458	     10.65029775	    -13.71425246	      1.90632189	     47.01372316	     98.95795368
      1.29000000	     -5.02448526	      1.88327727	     -0.28444855	      1.07046762	      0.93749404	     -0.21180459	     31.55239163	     -0.99747459	     -2.47354679	     17.30901794	      0.30209935	      1.12148782	     -6.94149231	     -7.25072715	     -4.15582867	      2.94380964	      0.24090573	      9.41262083	      0.16428122	     13.43309406	      1.45753766	     -7.25072715	     -7.19617471	    -17.18988126	     -4.27647304	     -0.25362260	    -10.11322186	     26.73656377	     35.12540409	    104.61486529	     10.23491822	    -13.75721815	      2.08798908	     46.99450377	     98.97779844
      1.30000000	     -4.98885090	      1.99392014	     -0.17314540	      1.07967828	      0.93644276	     -0.21199399	     31.55469280	     -1.22170530	     -2.91503079	     15.31149763	      0.26723605	      1.61620067	     -5.49571782	     -7.25909727	     -4.94468026	      2.99711698	      0.03149795	      9.14934807	      0.15968625	     13.55320789	      2.24328864	     -7.25909727	     -7.19220740	    -16.81801808	     -4.42542851	     -0.52648266	    -10.04966928	     26.18829755	     35.36242245	    104.65259789	      9.80778953	    -13.78717319	      2.27936019	     46.90155844	     99.00255988
      1.31000000	     -5.19305421	      2.13906436	     -0.07087582	      1.08897815	      0.93501104	     -0.21205916	     31.80688999	     -1.42218739	     -3.06105796	     13.43552091	      0.23449408	      1.77967080	     -4.71086538	     -7.26111183	     -5.44355102	      3.10077638	      0.01600102	      8.95687295	      0.15632692	     13.48411472	      2.54082091	     -7.26111183	     -6.86394535	    -16.49344380	     -4.60621597	     -0.76848056	    -10.03392913	     26.02158742	     35.46967258	    104.65620791	      9.23562234	    -13.84033211	      2.38480418	     46.70920502	     99.00508122
      1.32000000	     -5.33294124	      2.33237309	      0.05269971	      1.09839245	      0.93358301	     -0.21216119	     32.03226435	     -1.69908394	     -3.37128077	     11.80027527	      0.20595366	      2.03272592	     -4.13739155	     -7.26232171	     -6.00061922	      3.25307144	     -0.09521855	      8.78802441	      0.15337996	     13.46882896	      2.75643224	     -7.26232171	     -6.60091140	    -16.20609841	     -4.76160616	     -0.99700029	    -10.00560742	     25.88757976	     35.54612171	    104.65140554	      8.70784469	    -13.86057872	      2.45408714	     46.50826925	     99.00290252
      1.33000000	     -5.14803624	      2.21769883	      0.24972804	      1.10813748	      0.93262161	     -0.21233515	     31.68392907	     -1.74038306	     -3.79062161	     10.02670604	      0.17499903	      2.66935332	     -2.12410664	     -7.27058417	     -6.92564165	      3.02060119	     -0.15910029	      8.62057295	      0.15045738	     13.59239330	      3.75217671	     -7.27058417	     -6.79736558	    -15.49745034	     -5.02484829	     -1.26295496	     -9.97864818	     25.12589389	     35.78098180	    104.63216279	      8.16875864	    -13.77926348	      2.50514028	     46.19142517	     99.05613121
      1.34000000	     -5.35635899	      2.28299448	      0.42681299	      1.11792189	      0.93103027	     -0.21236890	     31.84543806	     -1.89066721	     -3.85730770	      8.56875478	      0.14955298	      2.88776999	     -1.53936395	     -7.27273856	     -7.35765861	      3.00711166	     -0.08676766	      8.60075305	      0.15011146	     13.52709646	      4.03453329	     -7.27273856	     -6.47044579	    -15.03203779	     -5.26097930	     -1.50295897	    -10.00770717	     24.92423689	     35.82535455	    104.62728894	      7.51375821	    -13.74694998	      2.54436341	     45.81745849	     99.04904855
      1.35000000	     -5.48836299	      2.43036327	      0.57724346	      1.12788396	      0.92940899	     -0.21241942	     32.04264496	     -2.13223521	     -4.06345958	      7.57587724	      0.13222400	      3.10722083	     -1.33942015	     -7.27358418	     -7.85731414	      3.09503218	     -0.12391606	      8.61624575	      0.15038186	     13.49689980	      4.17160540	     -7.27358418	     -6.21772033	    -14.64891164	     -5.38633768	     -1.75959089	    -10.04883240	     24.81602455	     35.80151407	    104.61833000	      6.88064653	    -13.65514955	      2.57020753	     45.49140204	     99.03086323
      1.36000000	     -5.58420016	      2.26724705	      0.85425198	      1.13811095	      0.92793119	     -0.21245909	     31.89822703	     -2.10172214	     -3.98387630	      6.33728805	      0.11060654	      3.26330080	     -0.74378595	     -7.27577279	     -8.38606165	      2.79357759	      0.06589999	      8.66594311	      0.15124924	     13.39391988	      4.60051502	     -7.27577279	     -6.01722933	    -13.86419686	     -5.78111472	     -1.93246688	    -10.05624501	     24.48294437	     35.75502775	    104.59051632	      6.20030428	    -13.52090792	      2.48134916	     44.88031846	     98.98886409
      1.37000000	     -5.64932095	      2.20999247	      1.05484834	      1.14857385	      0.92638688	     -0.21244032	     31.86739379	     -2.15174648	     -4.03645946	      5.65518369	      0.09870158	      3.47689082	     -0.59013477	     -7.27758651	     -8.94550501	      2.62120112	      0.08942521	      8.74962368	      0.15270974	     13.32355564	      4.93113855	     -7.27758651	     -5.80309523	    -13.18946190	     -6.02781355	     -2.13334073	    -10.10460705	     24.19657734	     35.66442351	    104.56345035	      5.49768112	    -13.32720507	      2.39522190	     44.29797774	     98.94107928
      1.38000000	     -5.70552471	      2.11898815	      1.22639164	      1.15931016	      0.92479605	     -0.21241274	     31.84365903	     -2.15954824	     -4.01596169	      5.33541868	      0.09312062	      3.67228495	     -0.61634951	     -7.27923776	     -9.52102640	      2.41636955	      0.09169998	      8.87227528	      0.15485042	     13.21768588	      5.25182893	     -7.27923776	     -5.59004851	    -12.47433351	     -6.25156889	     -2.34298653	    -10.16979885	     23.90567872	     35.53154692	    104.53134269	      4.75061307	    -13.08895560	      2.30949100	     43.65229758	     98.87808271
      1.39000000	     -5.65578669	      1.96357665	      1.35838728	      1.17028463	      0.92332307	     -0.21220227	     31.67676346	     -2.06025046	     -3.92062695	      5.27795068	      0.09211762	      3.65860962	     -0.94362712	     -7.28633572	    -10.15426737	      2.09862558	     -0.21790782	      9.12645662	      0.15928672	     13.33531139	      6.18679529	     -7.28633572	     -5.45743449	    -11.67767833	     -6.29470745	     -2.61688645	    -10.14958425	     23.08844435	     35.31940315	    104.48096374	      4.17526033	    -12.67480846	      2.00408716	     42.71858381	     98.74607042
      1.40000000	     -5.72803237	      1.81228795	      1.49740374	      1.18148735	      0.92162082	     -0.21200044	     31.69509506	     -1.96155232	     -3.84507611	      5.63878068	      0.09841529	      3.71199084	     -1.41521186	     -7.29153971	    -10.66658307	      1.80786250	     -0.31932789	      9.37959516	      0.16370482	     13.15871265	      6.60291794	     -7.29153971	     -5.17006532	    -10.86174251	     -6.42319428	     -2.86514704	    -10.24367738	     22.63875207	     35.17519423	    104.47211893	      3.39660822	    -12.37282180	      2.05538196	     41.91226024	     98.62111524
      1.41000000	     -5.78024022	      1.61656662	      1.61892341	      1.19290379	      0.91991374	     -0.21173960	     31.71932266	     -1.80085597	     -3.86029386	      6.31032664	      0.11013598	      3.64136750	     -1.83038967	     -7.29381436	    -11.23014074	      1.47754581	     -0.34730187	      9.60360186	      0.16761447	     12.90167314	      6.76566942	     -7.29381436	     -4.87739844	     -9.98597817	     -6.58950175	     -3.05672154	    -10.37810783	     22.34013359	     34.99236789	    104.44730535	      2.53611182	    -12.06769079	      2.10789107	     41.13890204	     98.50451061
      1.42000000	     -5.83850621	      1.38389215	      1.77030273	      1.20438798	      0.91817463	     -0.21143603	     31.76920552	     -1.59980250	     -3.89127226	      7.23442488	      0.12626453	      3.30002776	     -2.30609633	     -7.29584340	    -11.73036819	      1.09588025	     -0.31497895	      9.93542339	      0.17340585	     12.61410774	      6.88709574	     -7.29584340	     -4.57617804	     -9.05950355	     -6.74912416	     -3.23677119	    -10.50885514	     22.00287763	     34.75270910	    104.41100006	      1.74334083	    -11.70654402	      2.13544265	     40.26773927	     98.35958266
      1.43000000	     -5.96892882	      1.09123132	      1.95918443	      1.21594312	      0.91631952	     -0.21109070	     31.93285796	     -1.33819985	     -4.05009263	      8.34359159	      0.14562314	      2.53007593	     -3.09223326	     -7.29883503	    -12.06248353	      0.62994090	     -0.24965590	     10.43705567	      0.18216099	     12.30201579	      6.95343766	     -7.29883503	     -4.18767874	     -8.06132327	     -6.90071110	     -3.42127607	    -10.61789865	     21.49763730	     34.44137255	    104.35954941	      1.04086690	    -11.27404734	      2.13743740	     39.12929676	     98.13292299
      1.44000000	     -6.17597314	      0.76735990	      2.11144193	      1.22749719	      0.91439252	     -0.21055461	     32.13461717	     -0.97370534	     -3.86770219	      9.40085982	      0.16407596	      1.10495690	     -4.44389932	     -7.30494461	    -12.24207824	      0.13501609	     -0.10499299	     11.08078590	      0.19339620	     12.08330061	      6.90325444	     -7.30494461	     -3.69718121	     -7.02791693	     -6.94149846	     -3.66985872	    -10.69420821	     20.67766795	     34.16631751	    104.30908169	      0.43082533	    -10.82526556	      2.26577332	     37.83163302	     97.76424586
      1.45000000	     -6.22676676	      0.38261281	      2.26471377	      1.23924539	      0.91272267	     -0.21000793	     32.25161399	     -0.58634846	     -4.13026014	     10.68396736	      0.18647041	      0.04865356	     -5.11938012	     -7.30725139	    -12.58180685	     -0.44106489	      0.01242005	     11.71536889	      0.20447176	     11.68891952	      6.78029686	     -7.30725139	     -3.41254092	     -5.89649042	     -7.14414251	     -3.77626197	    -10.87539571	     20.29519639	     33.95670543	    104.27443526	     -0.37396441	    -10.37911438	      2.32508954	     36.89142301	     97.58303500
